<?xml version="1.0" standalone="no"?>
<!DOCTYPE svg PUBLIC "-//W3C//DTD SVG 20010904//EN"
 "http://www.w3.org/TR/2001/REC-SVG-20010904/DTD/svg10.dtd">
<svg version="1.0" xmlns="http://www.w3.org/2000/svg"
 width="300.000000pt" height="300.000000pt" viewBox="0 0 300.000000 300.000000"
 fill="white"
 preserveAspectRatio="xMidYMid meet">

<g transform="translate(0.000000,300.000000) scale(0.100000,-0.100000)"
fill="#000000" stroke="none">
<path d="M2377 2506 c-27 -17 -91 -62 -143 -100 -85 -62 -170 -107 -289 -153
-37 -14 -43 -14 -85 5 -80 35 -125 50 -190 62 -94 17 -285 14 -359 -5 -52 -13
-65 -14 -78 -3 -12 10 -98 14 -372 16 -196 2 -380 7 -409 12 -56 10 -92 1 -92
-23 0 -22 42 -91 86 -143 24 -28 44 -55 44 -60 0 -5 30 -43 67 -86 136 -153
160 -184 180 -228 11 -25 27 -51 35 -58 13 -10 14 -20 6 -50 -5 -20 -13 -58
-18 -84 -5 -27 -11 -52 -14 -57 -3 -4 -10 -48 -15 -96 -20 -176 32 -240 222
-270 34 -6 38 -9 33 -28 -13 -44 -37 -374 -34 -452 6 -140 56 -201 111 -136
l25 30 10 -27 c6 -15 23 -65 38 -112 42 -129 97 -220 134 -220 24 0 51 54 57
114 l6 53 76 7 c42 4 117 13 166 21 50 7 127 15 173 18 l82 5 0 -56 c0 -62 29
-136 62 -153 45 -24 118 22 158 101 28 55 50 121 50 151 0 15 3 40 6 56 5 25
10 29 33 25 37 -5 58 22 63 87 5 45 -2 79 -39 195 -62 197 -95 376 -70 376 8
0 89 81 125 124 10 12 10 25 3 53 -6 21 -13 72 -17 113 l-6 75 53 90 c65 108
69 115 92 148 23 32 74 181 93 271 29 140 29 415 -1 422 -6 1 -32 -12 -58 -30z
m-5 -104 c-16 -39 -55 -110 -87 -159 -32 -48 -72 -113 -88 -143 -41 -75 -64
-104 -70 -88 -3 7 -6 3 -6 -9 -1 -13 -5 -23 -10 -23 -4 0 0 -26 9 -57 10 -32
23 -116 30 -188 7 -71 18 -171 25 -222 10 -80 10 -93 -3 -98 -12 -4 -13 -8 -4
-17 19 -19 15 -26 -40 -82 -44 -43 -68 -58 -143 -85 -145 -52 -251 -64 -535
-57 -304 6 -536 36 -620 79 -84 43 -92 140 -30 397 12 48 55 184 80 250 20 55
20 87 -1 75 -6 -4 -23 4 -37 18 -15 14 -84 63 -153 110 -148 99 -227 157 -251
183 -16 19 -9 19 310 16 180 -2 359 -6 397 -10 l70 -7 -56 -28 c-31 -16 -69
-39 -85 -52 -28 -23 -28 -24 -6 -25 12 0 39 11 60 24 110 69 214 97 365 97
156 0 257 -22 366 -78 24 -13 49 -23 55 -23 6 0 28 -13 48 -30 33 -28 36 -28
41 -10 3 14 -4 25 -25 38 l-29 19 90 41 c49 23 93 42 97 42 4 0 22 11 40 25
18 14 36 25 39 25 4 0 31 20 59 45 29 25 57 45 62 45 5 0 20 9 34 20 14 10 26
17 28 16 1 -2 -11 -35 -26 -74z m51 -123 c-3 -91 -16 -165 -39 -244 -25 -82
-56 -159 -72 -178 -9 -9 -39 -58 -67 -108 -59 -102 -58 -103 -70 47 -4 43 -13
101 -21 128 -17 60 -17 56 -1 56 14 0 63 68 54 76 -3 4 31 62 77 129 45 68 94
148 107 178 23 53 24 54 30 27 3 -15 4 -65 2 -111z m-1586 -318 c23 -17 23
-27 -2 -91 -7 -19 -20 -53 -28 -75 l-15 -40 -22 49 c-23 50 -85 134 -177 236
-28 32 -63 77 -77 98 -14 22 -30 43 -36 47 -5 3 -10 10 -10 16 0 7 266 -167
367 -240z m945 -842 l-81 -41 -63 30 -63 30 80 2 c44 1 100 5 125 9 83 15 83
11 2 -30z m272 -30 c3 -17 6 -44 6 -60 0 -15 5 -31 10 -34 6 -4 10 -59 10
-132 0 -125 0 -125 -22 -119 -13 3 -37 6 -55 6 -29 0 -32 3 -38 41 -4 24 -14
43 -23 46 -10 3 -36 12 -59 22 l-43 16 0 82 c0 45 -4 85 -10 88 -20 12 -9 24
26 31 19 3 57 15 82 24 26 10 61 19 78 19 28 1 32 -3 38 -30z m-557 -9 l88 0
3 -105 3 -105 -36 0 c-30 0 -44 -7 -69 -35 -26 -28 -42 -36 -87 -43 l-54 -7 3
-36 3 -36 -96 -7 c-54 -4 -99 -5 -101 -3 -3 2 0 16 6 31 16 42 13 261 -3 275
-22 18 -27 2 -27 -84 0 -94 -17 -197 -33 -207 -7 -4 -36 -8 -64 -8 l-53 0 0
38 c0 20 5 96 12 169 l11 132 51 11 c28 6 105 14 171 17 66 3 127 9 135 13 8
5 22 4 32 -1 9 -5 56 -9 105 -9z m188 -31 c5 -5 12 -48 14 -95 l3 -85 -33 3
-34 3 -5 85 c-3 47 -9 91 -14 99 -7 12 -3 13 25 7 18 -3 38 -11 44 -17z m103
-81 c2 -88 1 -96 -17 -101 -32 -8 -41 13 -41 92 0 56 4 79 17 93 29 33 38 15
41 -84z m370 -240 c-7 -4 -21 -8 -30 -8 -16 0 -18 10 -18 78 0 42 -3 95 -5
117 -3 22 10 -9 30 -69 28 -85 33 -111 23 -118z m-564 86 c9 -33 43 -30 38 4
-3 19 1 22 31 22 31 0 35 -4 41 -31 15 -76 16 -75 -91 -82 -54 -4 -128 -7
-165 -7 -61 0 -68 2 -68 20 0 12 7 20 16 20 43 0 98 26 113 52 12 21 24 28 47
28 26 0 33 -5 38 -26z m201 15 c-4 -5 1 -19 11 -30 21 -23 45 -9 37 21 -6 24
6 25 51 3 22 -10 39 -27 45 -45 10 -27 9 -28 -22 -28 -18 0 -62 -3 -99 -6
l-66 -7 -11 39 c-17 59 -15 64 25 64 22 0 33 -4 29 -11z m268 -115 c9 -4 17
-14 17 -24 0 -23 -52 -29 -209 -22 -110 4 -121 7 -121 23 0 16 9 19 63 20 147
3 198 6 204 13 4 3 12 4 17 1 6 -3 19 -8 29 -11z m-343 -33 c0 -16 -11 -19
-97 -25 -178 -12 -227 -16 -352 -28 -94 -8 -126 -8 -129 0 -2 7 -10 12 -18 12
-8 0 -14 6 -14 14 0 16 14 17 310 31 91 4 167 9 169 11 2 2 33 4 68 4 55 0 63
-2 63 -19z m450 -20 c0 -16 -6 -34 -14 -40 -11 -10 -17 -7 -30 11 -27 38 -18
55 27 57 12 1 17 -7 17 -28z m-1099 -19 c-23 -45 -48 -69 -60 -56 -5 5 -13 24
-20 43 -14 42 -5 51 57 51 l42 0 -19 -38z m1007 -25 c5 -24 -16 -150 -32 -198
-19 -56 -64 -118 -98 -135 -35 -18 -40 -15 -68 38 -17 33 -21 55 -18 102 l3
61 -105 -3 c-58 -2 -148 -10 -200 -18 -52 -9 -131 -17 -175 -19 l-80 -3 -7
-67 c-7 -76 -17 -92 -45 -77 -24 13 -55 74 -88 172 -41 123 -49 115 123 129
81 7 217 18 302 25 85 8 229 13 320 12 146 -2 165 -4 168 -19z"/>
<path d="M1287 2124 c-4 -4 -7 -14 -7 -23 0 -9 -6 -28 -14 -43 -10 -19 -15
-73 -17 -180 -3 -152 0 -178 25 -178 10 0 15 36 19 143 4 78 11 169 17 202 7
46 7 63 -3 73 -7 7 -16 9 -20 6z"/>
<path d="M1743 2084 c-8 -20 15 -171 30 -199 5 -11 13 -58 16 -105 5 -65 10
-85 21 -88 14 -2 15 8 13 65 -2 37 -10 97 -18 133 -8 36 -19 95 -26 133 -11
69 -24 91 -36 61z"/>
<path d="M930 1576 c-55 -8 -75 -15 -75 -26 0 -18 -3 -18 113 -1 61 8 92 17
89 24 -5 16 -38 17 -127 3z"/>
<path d="M1872 1572 c-43 -13 -27 -27 31 -29 33 -1 70 -4 83 -7 18 -5 24 -2
24 9 0 9 -6 17 -12 20 -29 9 -105 13 -126 7z"/>
<path d="M1416 1523 c-11 -12 -6 -58 10 -81 16 -23 58 -30 69 -12 4 7 12 7 25
0 30 -16 75 -12 94 9 21 23 18 66 -4 66 -8 0 -14 -6 -12 -14 4 -18 -17 -41
-38 -41 -10 0 -27 12 -38 27 l-19 26 -18 -26 c-14 -22 -20 -25 -31 -16 -8 6
-14 22 -14 35 0 24 -12 38 -24 27z"/>
<path d="M1892 1461 c-60 -11 -34 -26 48 -28 74 -2 96 6 69 22 -15 10 -78 13
-117 6z"/>
<path d="M931 1429 c-54 -10 -67 -22 -46 -39 12 -10 18 -10 30 0 10 8 48 13
101 14 69 1 84 4 82 16 -4 18 -98 23 -167 9z"/>
</g>
</svg>
